<mxfile host="app.diagrams.net" modified="2023-10-12T09:39:44.184Z" agent="Mozilla/5.0 (Windows NT 10.0; Win64; x64) AppleWebKit/537.36 (KHTML, like Gecko) Chrome/117.0.0.0 Safari/537.36" etag="g3jzy359ilPIJgtVUIsv" version="22.0.4" type="google">
  <diagram name="Page-1" id="LNDbYZr5bBlh9pclEteb">
    <mxGraphModel grid="1" page="1" gridSize="10" guides="1" tooltips="1" connect="1" arrows="1" fold="1" pageScale="1" pageWidth="750" pageHeight="869" math="0" shadow="0">
      <root>
        <mxCell id="0" />
        <mxCell id="1" parent="0" />
        <mxCell id="w_APZHpEXX284L3Ab1yA-1" value="一般国道" style="rounded=0;whiteSpace=wrap;html=1;fillColor=none;strokeColor=none;fontSize=18;fontStyle=1" vertex="1" parent="1">
          <mxGeometry x="157.5" y="30" width="120" height="30" as="geometry" />
        </mxCell>
        <mxCell id="w_APZHpEXX284L3Ab1yA-2" value="都道府県道・市町村道" style="rounded=0;whiteSpace=wrap;html=1;fillColor=none;strokeColor=none;fontSize=18;fontStyle=1" vertex="1" parent="1">
          <mxGeometry x="450" y="30" width="210" height="30" as="geometry" />
        </mxCell>
        <mxCell id="w_APZHpEXX284L3Ab1yA-3" value="路線の指定又はその変更" style="rounded=0;whiteSpace=wrap;html=1;fontSize=14;" vertex="1" parent="1">
          <mxGeometry x="140" y="90" width="180" height="30" as="geometry" />
        </mxCell>
        <mxCell id="w_APZHpEXX284L3Ab1yA-4" value="路線の指定又はその変更" style="rounded=0;whiteSpace=wrap;html=1;fontSize=14;" vertex="1" parent="1">
          <mxGeometry x="460" y="90" width="180" height="30" as="geometry" />
        </mxCell>
        <mxCell id="w_APZHpEXX284L3Ab1yA-5" value="道路の区域の決定又はその変更" style="rounded=0;whiteSpace=wrap;html=1;fontSize=14;" vertex="1" parent="1">
          <mxGeometry x="125" y="240" width="210" height="30" as="geometry" />
        </mxCell>
        <mxCell id="w_APZHpEXX284L3Ab1yA-28" value="" style="edgeStyle=orthogonalEdgeStyle;rounded=0;orthogonalLoop=1;jettySize=auto;html=1;" edge="1" parent="1" source="w_APZHpEXX284L3Ab1yA-6" target="w_APZHpEXX284L3Ab1yA-5">
          <mxGeometry relative="1" as="geometry" />
        </mxCell>
        <mxCell id="w_APZHpEXX284L3Ab1yA-6" value="道路の区域内の土地についての権原の取得" style="rounded=0;whiteSpace=wrap;html=1;fontSize=14;" vertex="1" parent="1">
          <mxGeometry x="125" y="346" width="210" height="50" as="geometry" />
        </mxCell>
        <mxCell id="w_APZHpEXX284L3Ab1yA-7" value="工事の施行" style="rounded=0;whiteSpace=wrap;html=1;fontSize=14;" vertex="1" parent="1">
          <mxGeometry x="157.5" y="420" width="145" height="30" as="geometry" />
        </mxCell>
        <mxCell id="w_APZHpEXX284L3Ab1yA-8" value="供用の開始" style="rounded=0;whiteSpace=wrap;html=1;fontSize=14;" vertex="1" parent="1">
          <mxGeometry x="157.5" y="480" width="145" height="30" as="geometry" />
        </mxCell>
        <mxCell id="w_APZHpEXX284L3Ab1yA-9" value="供用中の道路の管理" style="rounded=0;whiteSpace=wrap;html=1;fontSize=14;" vertex="1" parent="1">
          <mxGeometry x="137.5" y="600" width="185" height="30" as="geometry" />
        </mxCell>
        <mxCell id="w_APZHpEXX284L3Ab1yA-10" value="供用の廃止" style="rounded=0;whiteSpace=wrap;html=1;fontSize=14;" vertex="1" parent="1">
          <mxGeometry x="152.5" y="660" width="155" height="30" as="geometry" />
        </mxCell>
        <mxCell id="w_APZHpEXX284L3Ab1yA-11" value="不要物件の管理" style="rounded=0;whiteSpace=wrap;html=1;fontSize=14;" vertex="1" parent="1">
          <mxGeometry x="137.5" y="750" width="185" height="30" as="geometry" />
        </mxCell>
        <mxCell id="w_APZHpEXX284L3Ab1yA-12" value="" style="endArrow=classic;html=1;rounded=0;exitX=0.5;exitY=1;exitDx=0;exitDy=0;entryX=0.5;entryY=0;entryDx=0;entryDy=0;edgeStyle=orthogonalEdgeStyle;verticalAlign=bottom;spacing=0;labelPosition=center;verticalLabelPosition=top;align=center;" edge="1" parent="1" source="w_APZHpEXX284L3Ab1yA-3" target="w_APZHpEXX284L3Ab1yA-5">
          <mxGeometry relative="1" as="geometry">
            <mxPoint x="320" y="290" as="sourcePoint" />
            <mxPoint x="420" y="290" as="targetPoint" />
          </mxGeometry>
        </mxCell>
        <mxCell id="w_APZHpEXX284L3Ab1yA-13" value="政令で規定（§5）" style="edgeLabel;resizable=0;html=1;align=center;verticalAlign=middle;fontSize=12;" connectable="0" vertex="1" parent="w_APZHpEXX284L3Ab1yA-12">
          <mxGeometry relative="1" as="geometry">
            <mxPoint y="-20" as="offset" />
          </mxGeometry>
        </mxCell>
        <mxCell id="w_APZHpEXX284L3Ab1yA-14" value="" style="endArrow=classic;html=1;rounded=0;exitX=0.572;exitY=1.033;exitDx=0;exitDy=0;entryX=0.5;entryY=0;entryDx=0;entryDy=0;edgeStyle=orthogonalEdgeStyle;exitPerimeter=0;" edge="1" parent="1" source="w_APZHpEXX284L3Ab1yA-4" target="w_APZHpEXX284L3Ab1yA-5">
          <mxGeometry relative="1" as="geometry">
            <mxPoint x="740" y="160" as="sourcePoint" />
            <mxPoint x="420" y="280" as="targetPoint" />
          </mxGeometry>
        </mxCell>
        <mxCell id="w_APZHpEXX284L3Ab1yA-15" value="公示（§9）" style="edgeLabel;resizable=0;html=1;align=center;verticalAlign=middle;fontSize=12;" connectable="0" vertex="1" parent="w_APZHpEXX284L3Ab1yA-14">
          <mxGeometry relative="1" as="geometry">
            <mxPoint x="164" y="-20" as="offset" />
          </mxGeometry>
        </mxCell>
        <mxCell id="w_APZHpEXX284L3Ab1yA-16" value="（§5）" style="rounded=0;whiteSpace=wrap;html=1;fillColor=none;strokeColor=none;fontSize=12;fontStyle=0" vertex="1" parent="1">
          <mxGeometry x="270" y="122" width="70" height="16" as="geometry" />
        </mxCell>
        <mxCell id="w_APZHpEXX284L3Ab1yA-17" value="（§7、§8、§10）" style="rounded=0;whiteSpace=wrap;html=1;fillColor=none;strokeColor=none;fontSize=12;fontStyle=0" vertex="1" parent="1">
          <mxGeometry x="590" y="120" width="110" height="18" as="geometry" />
        </mxCell>
        <mxCell id="w_APZHpEXX284L3Ab1yA-18" value="【公用制限】" style="rounded=0;whiteSpace=wrap;html=1;fontSize=14;fontColor=default;strokeColor=none;fillColor=none;" vertex="1" parent="1">
          <mxGeometry x="460" y="240" width="120" height="30" as="geometry" />
        </mxCell>
        <mxCell id="w_APZHpEXX284L3Ab1yA-19" value="" style="shape=flexArrow;endArrow=classic;html=1;rounded=0;width=9;endSize=6;endWidth=7;" edge="1" parent="1">
          <mxGeometry width="50" height="50" relative="1" as="geometry">
            <mxPoint x="360" y="254.5" as="sourcePoint" />
            <mxPoint x="460" y="254.5" as="targetPoint" />
          </mxGeometry>
        </mxCell>
        <mxCell id="w_APZHpEXX284L3Ab1yA-20" value="＜予定公物制限（§91 Ⅰ）＞" style="rounded=0;whiteSpace=wrap;html=1;fillColor=none;strokeColor=none;fontSize=12;fontStyle=0" vertex="1" parent="1">
          <mxGeometry x="510" y="270" width="190" height="18" as="geometry" />
        </mxCell>
        <mxCell id="w_APZHpEXX284L3Ab1yA-21" value="＜道路予定区域制限（§91 Ⅱ）＞" style="rounded=0;whiteSpace=wrap;html=1;fillColor=none;strokeColor=none;fontSize=12;fontStyle=0" vertex="1" parent="1">
          <mxGeometry x="440" y="346" width="190" height="18" as="geometry" />
        </mxCell>
        <mxCell id="w_APZHpEXX284L3Ab1yA-22" value="私権の制限（§４）等" style="rounded=0;whiteSpace=wrap;html=1;fillColor=none;strokeColor=none;fontSize=12;fontStyle=0" vertex="1" parent="1">
          <mxGeometry x="450" y="370" width="190" height="18" as="geometry" />
        </mxCell>
        <mxCell id="w_APZHpEXX284L3Ab1yA-23" value="" style="endArrow=classic;html=1;rounded=0;" edge="1" parent="1" source="w_APZHpEXX284L3Ab1yA-5" target="w_APZHpEXX284L3Ab1yA-6">
          <mxGeometry width="50" height="50" relative="1" as="geometry">
            <mxPoint x="350" y="420" as="sourcePoint" />
            <mxPoint x="400" y="370" as="targetPoint" />
          </mxGeometry>
        </mxCell>
        <mxCell id="w_APZHpEXX284L3Ab1yA-24" value="公示（§18 Ⅰ）" style="rounded=0;whiteSpace=wrap;html=1;fillColor=none;strokeColor=none;fontSize=12;fontStyle=0" vertex="1" parent="1">
          <mxGeometry x="290" y="300" width="110" height="18" as="geometry" />
        </mxCell>
        <mxCell id="w_APZHpEXX284L3Ab1yA-25" value="" style="endArrow=classic;html=1;rounded=0;edgeStyle=orthogonalEdgeStyle;exitX=0.5;exitY=1;exitDx=0;exitDy=0;entryX=0;entryY=0.5;entryDx=0;entryDy=0;" edge="1" parent="1" source="w_APZHpEXX284L3Ab1yA-5" target="w_APZHpEXX284L3Ab1yA-24">
          <mxGeometry width="50" height="50" relative="1" as="geometry">
            <mxPoint x="240" y="280" as="sourcePoint" />
            <mxPoint x="240" y="356" as="targetPoint" />
          </mxGeometry>
        </mxCell>
        <mxCell id="w_APZHpEXX284L3Ab1yA-26" value="" style="endArrow=classic;html=1;rounded=0;entryX=0.5;entryY=0;entryDx=0;entryDy=0;exitX=0.5;exitY=1;exitDx=0;exitDy=0;" edge="1" parent="1" source="w_APZHpEXX284L3Ab1yA-6" target="w_APZHpEXX284L3Ab1yA-7">
          <mxGeometry width="50" height="50" relative="1" as="geometry">
            <mxPoint x="240" y="280" as="sourcePoint" />
            <mxPoint x="240" y="356" as="targetPoint" />
          </mxGeometry>
        </mxCell>
        <mxCell id="w_APZHpEXX284L3Ab1yA-27" value="" style="endArrow=classic;html=1;rounded=0;entryX=0.5;entryY=0;entryDx=0;entryDy=0;exitX=0.5;exitY=1;exitDx=0;exitDy=0;" edge="1" parent="1" source="w_APZHpEXX284L3Ab1yA-7" target="w_APZHpEXX284L3Ab1yA-8">
          <mxGeometry width="50" height="50" relative="1" as="geometry">
            <mxPoint x="240" y="406" as="sourcePoint" />
            <mxPoint x="240" y="460" as="targetPoint" />
          </mxGeometry>
        </mxCell>
        <mxCell id="w_APZHpEXX284L3Ab1yA-29" value="" style="endArrow=classic;html=1;rounded=0;entryX=0.5;entryY=0;entryDx=0;entryDy=0;" edge="1" parent="1" source="w_APZHpEXX284L3Ab1yA-8" target="w_APZHpEXX284L3Ab1yA-9">
          <mxGeometry width="50" height="50" relative="1" as="geometry">
            <mxPoint x="233" y="512" as="sourcePoint" />
            <mxPoint x="233" y="588" as="targetPoint" />
          </mxGeometry>
        </mxCell>
        <mxCell id="w_APZHpEXX284L3Ab1yA-30" value="公示（§18 Ⅱ）" style="rounded=0;whiteSpace=wrap;html=1;fillColor=none;strokeColor=none;fontSize=12;fontStyle=0" vertex="1" parent="1">
          <mxGeometry x="290" y="542" width="110" height="18" as="geometry" />
        </mxCell>
        <mxCell id="w_APZHpEXX284L3Ab1yA-32" value="" style="endArrow=classic;html=1;rounded=0;edgeStyle=orthogonalEdgeStyle;exitX=0.5;exitY=1;exitDx=0;exitDy=0;entryX=0;entryY=0.5;entryDx=0;entryDy=0;" edge="1" parent="1" source="w_APZHpEXX284L3Ab1yA-8" target="w_APZHpEXX284L3Ab1yA-30">
          <mxGeometry width="50" height="50" relative="1" as="geometry">
            <mxPoint x="350" y="420" as="sourcePoint" />
            <mxPoint x="400" y="370" as="targetPoint" />
          </mxGeometry>
        </mxCell>
        <mxCell id="w_APZHpEXX284L3Ab1yA-35" value="" style="endArrow=classic;html=1;rounded=0;exitX=0.5;exitY=1;exitDx=0;exitDy=0;entryX=0.5;entryY=0;entryDx=0;entryDy=0;" edge="1" parent="1" source="w_APZHpEXX284L3Ab1yA-9" target="w_APZHpEXX284L3Ab1yA-10">
          <mxGeometry width="50" height="50" relative="1" as="geometry">
            <mxPoint x="350" y="620" as="sourcePoint" />
            <mxPoint x="400" y="570" as="targetPoint" />
          </mxGeometry>
        </mxCell>
        <mxCell id="w_APZHpEXX284L3Ab1yA-36" value="" style="endArrow=classic;html=1;rounded=0;entryX=0.5;entryY=0;entryDx=0;entryDy=0;exitX=0.5;exitY=1;exitDx=0;exitDy=0;" edge="1" parent="1" source="w_APZHpEXX284L3Ab1yA-10" target="w_APZHpEXX284L3Ab1yA-11">
          <mxGeometry width="50" height="50" relative="1" as="geometry">
            <mxPoint x="240" y="650" as="sourcePoint" />
            <mxPoint x="240" y="725" as="targetPoint" />
          </mxGeometry>
        </mxCell>
        <mxCell id="w_APZHpEXX284L3Ab1yA-37" value="公示（§18 Ⅱ）" style="rounded=0;whiteSpace=wrap;html=1;fillColor=none;strokeColor=none;fontSize=12;fontStyle=0" vertex="1" parent="1">
          <mxGeometry x="290" y="710" width="110" height="18" as="geometry" />
        </mxCell>
        <mxCell id="w_APZHpEXX284L3Ab1yA-40" value="" style="endArrow=none;dashed=1;html=1;dashPattern=1 3;strokeWidth=2;rounded=0;" edge="1" parent="1">
          <mxGeometry width="50" height="50" relative="1" as="geometry">
            <mxPoint x="350" y="510" as="sourcePoint" />
            <mxPoint x="680" y="510" as="targetPoint" />
          </mxGeometry>
        </mxCell>
        <mxCell id="w_APZHpEXX284L3Ab1yA-41" value="" style="endArrow=none;dashed=1;html=1;dashPattern=1 3;strokeWidth=2;rounded=0;" edge="1" parent="1">
          <mxGeometry width="50" height="50" relative="1" as="geometry">
            <mxPoint x="320" y="830" as="sourcePoint" />
            <mxPoint x="680" y="830" as="targetPoint" />
          </mxGeometry>
        </mxCell>
        <mxCell id="w_APZHpEXX284L3Ab1yA-43" value="（§92）" style="rounded=0;whiteSpace=wrap;html=1;fillColor=none;strokeColor=none;fontSize=12;fontStyle=0" vertex="1" parent="1">
          <mxGeometry x="350" y="800" width="110" height="18" as="geometry" />
        </mxCell>
        <mxCell id="w_APZHpEXX284L3Ab1yA-44" value="" style="endArrow=classic;html=1;rounded=0;" edge="1" parent="1">
          <mxGeometry width="50" height="50" relative="1" as="geometry">
            <mxPoint x="530" y="400" as="sourcePoint" />
            <mxPoint x="530" y="830" as="targetPoint" />
          </mxGeometry>
        </mxCell>
        <mxCell id="w_APZHpEXX284L3Ab1yA-46" value="" style="endArrow=classic;html=1;rounded=0;" edge="1" parent="1">
          <mxGeometry width="50" height="50" relative="1" as="geometry">
            <mxPoint x="639" y="300" as="sourcePoint" />
            <mxPoint x="639" y="510" as="targetPoint" />
          </mxGeometry>
        </mxCell>
        <mxCell id="w_APZHpEXX284L3Ab1yA-47" value="" style="endArrow=classic;html=1;rounded=0;edgeStyle=orthogonalEdgeStyle;exitX=0.5;exitY=1;exitDx=0;exitDy=0;entryX=0;entryY=0.5;entryDx=0;entryDy=0;" edge="1" parent="1" source="w_APZHpEXX284L3Ab1yA-10" target="w_APZHpEXX284L3Ab1yA-37">
          <mxGeometry width="50" height="50" relative="1" as="geometry">
            <mxPoint x="350" y="620" as="sourcePoint" />
            <mxPoint x="400" y="570" as="targetPoint" />
          </mxGeometry>
        </mxCell>
      </root>
    </mxGraphModel>
  </diagram>
</mxfile>
